<svg xmlns="http://www.w3.org/2000/svg" viewBox="0 0 512 512">
  <rect width="512" height="512" rx="76" fill="#1a1a2e"/>
  <rect x="58" y="336" width="396" height="42" fill="#2c3e50"/>
  <rect x="118" y="208" width="192" height="102" fill="#ff8800"/>
  <rect x="246" y="134" width="122" height="122" fill="#ffaa33"/>
  <rect x="246" y="90" width="38" height="60" fill="#ff8800"/>
  <rect x="326" y="90" width="38" height="60" fill="#ff8800"/>
  <rect x="272" y="170" width="22" height="22" fill="#1a1a1a"/>
  <rect x="320" y="170" width="22" height="22" fill="#1a1a1a"/>
  <rect x="298" y="208" width="22" height="14" fill="#ff6699"/>
  <rect x="74" y="188" width="58" height="26" fill="#ff8800"/>
  <rect x="134" y="288" width="38" height="64" fill="#ff8800"/>
  <rect x="234" y="288" width="38" height="64" fill="#ff8800"/>
  <rect x="182" y="288" width="38" height="52" fill="#cc6600"/>
  <rect x="288" y="288" width="38" height="52" fill="#cc6600"/>
  <rect x="90" y="80" width="32" height="32" fill="#ffd700"/>
  <rect x="405" y="144" width="22" height="22" fill="#a0d8ef"/>
  <rect x="378" y="236" width="54" height="84" fill="#4a90d9"/>
</svg>
