<svg xmlns="http://www.w3.org/2000/svg" viewBox="0 0 192 192">
  <rect width="192" height="192" rx="28" fill="#1a1a2e"/>
  <rect x="22" y="126" width="148" height="16" fill="#2c3e50"/>
  <rect x="44" y="78" width="72" height="38" fill="#ff8800"/>
  <rect x="92" y="50" width="46" height="46" fill="#ffaa33"/>
  <rect x="92" y="34" width="14" height="22" fill="#ff8800"/>
  <rect x="122" y="34" width="14" height="22" fill="#ff8800"/>
  <rect x="102" y="64" width="8" height="8" fill="#1a1a1a"/>
  <rect x="120" y="64" width="8" height="8" fill="#1a1a1a"/>
  <rect x="112" y="78" width="8" height="5" fill="#ff6699"/>
  <rect x="28" y="70" width="22" height="10" fill="#ff8800"/>
  <rect x="50" y="108" width="14" height="24" fill="#ff8800"/>
  <rect x="88" y="108" width="14" height="24" fill="#ff8800"/>
  <rect x="68" y="108" width="14" height="20" fill="#cc6600"/>
  <rect x="108" y="108" width="14" height="20" fill="#cc6600"/>
  <rect x="34" y="30" width="12" height="12" fill="#ffd700"/>
  <rect x="152" y="54" width="8" height="8" fill="#a0d8ef"/>
</svg>
